<svg width="36" height="49" viewBox="0 0 36 49" fill="none" xmlns="http://www.w3.org/2000/svg">
<path d="M2 20.7516C2 19.7144 2.51859 18.398 3.51587 16.7226C4.51315 15.0471 5.51043 13.651 6.42792 12.5739C6.66727 12.2947 6.9864 11.8957 7.34542 11.4569C7.70444 11.0181 7.94379 10.7788 7.98368 10.7389L9.45966 12.4542C10.5766 13.6908 11.5739 15.087 12.4914 16.7226C13.4089 18.3581 13.8876 19.6745 13.8876 20.7516C13.8876 22.3871 13.3291 23.8232 12.1723 24.9801C11.0553 26.1369 9.65911 26.7353 7.98368 26.7353C6.34814 26.7353 4.91206 26.1369 3.75521 24.9801C2.59837 23.7833 2 22.3871 2 20.7516ZM14.4461 37.3064C14.4461 36.1496 14.7652 34.8332 15.4034 33.2774C16.0417 31.7616 16.8395 30.3255 17.7969 29.049C19.6319 26.6156 21.3472 24.5811 23.0227 22.9456C23.1822 22.8259 23.5413 22.5068 24.0598 21.9882L25.0571 22.9456C26.6129 24.4216 28.3681 26.456 30.3228 29.0091C31.3599 30.3654 32.1578 31.8015 32.796 33.3173C33.4343 34.8332 33.7534 36.1496 33.7534 37.3064C33.7534 40.0589 32.8359 42.3327 30.961 44.2076C29.0861 46.0825 26.7724 47 24.0598 47C21.3472 47 19.0734 46.0426 17.1985 44.1677C15.3237 42.2928 14.4461 39.9791 14.4461 37.3064ZM20.5095 9.7815C20.5095 8.06618 21.8259 5.79238 24.4986 3L25.4959 4.11695C26.2539 4.99456 26.932 5.95195 27.5304 7.0689C28.1287 8.14597 28.4479 9.06346 28.4479 9.7815C28.4479 10.8985 28.049 11.7761 27.291 12.534C26.5331 13.252 25.6156 13.651 24.4986 13.651C23.3418 13.651 22.3844 13.2919 21.6265 12.534C20.9084 11.7761 20.5095 10.8586 20.5095 9.7815Z" stroke="black" stroke-width="3"/>
</svg>
