<svg width="44" height="45" viewBox="0 0 44 45" fill="none" xmlns="http://www.w3.org/2000/svg">
<path d="M0 22C0 21.5028 0.165725 21.0678 0.517891 20.7156C0.870056 20.3842 1.30508 20.2185 1.76083 20.2185H5.98682C6.46328 20.2185 6.85687 20.3842 7.18832 20.7363C7.49906 21.0885 7.66478 21.5028 7.66478 22C7.66478 22.4972 7.51977 22.9115 7.20904 23.2637C6.8983 23.6158 6.48399 23.7815 6.00753 23.7815H1.78154C1.30508 23.7815 0.890773 23.6158 0.538607 23.2637C0.186441 22.9115 0 22.4972 0 22ZM5.92467 36.3559C5.92467 35.8795 6.0904 35.4652 6.40113 35.0923L9.44633 32.1299C9.75706 31.7985 10.1714 31.6535 10.6686 31.6535C11.1657 31.6535 11.58 31.8192 11.9115 32.1299C12.2429 32.4407 12.4087 32.8343 12.4087 33.3107C12.4087 33.8079 12.2429 34.2636 11.9115 34.6365L8.96987 37.5782C8.12053 38.2411 7.27119 38.2411 6.42184 37.5782C6.09039 37.2467 5.92467 36.8324 5.92467 36.3559ZM5.92467 7.6855C5.92467 7.20904 6.0904 6.79473 6.40113 6.42184C6.81544 6.06968 7.25047 5.90395 7.72693 5.90395C8.18268 5.90395 8.59699 6.06968 8.94915 6.40113L11.9115 9.44633C12.2429 9.75706 12.4087 10.1714 12.4087 10.6685C12.4087 11.1657 12.2429 11.58 11.9115 11.9115C11.58 12.2429 11.1657 12.4087 10.6686 12.4087C10.1714 12.4087 9.75706 12.2429 9.44633 11.9115L6.42184 8.94915C6.09039 8.6177 5.92467 8.18267 5.92467 7.6855ZM11.2072 22C11.2072 20.0734 11.6836 18.2712 12.6572 16.6139C13.6309 14.9567 14.936 13.6309 16.6139 12.6572C18.2919 11.6836 20.0734 11.2072 22 11.2072C23.4501 11.2072 24.838 11.4972 26.1846 12.0772C27.5104 12.6572 28.6704 13.4237 29.6234 14.3974C30.597 15.371 31.3635 16.5104 31.9228 17.8362C32.4821 19.162 32.7721 20.5706 32.7721 22.0207C32.7721 23.968 32.2957 25.7702 31.322 27.4275C30.3484 29.0847 29.0433 30.3898 27.3861 31.3635C25.7288 32.3371 23.9266 32.8136 21.9793 32.8136C20.032 32.8136 18.2298 32.3371 16.5725 31.3635C14.9153 30.3898 13.6102 29.0847 12.6365 27.4275C11.7043 25.7495 11.2072 23.9473 11.2072 22ZM14.7288 22C14.7288 24.0301 15.4331 25.7495 16.8625 27.1789C18.2712 28.6083 19.9906 29.3333 22.0207 29.3333C24.0508 29.3333 25.7702 28.6083 27.1996 27.1789C28.629 25.7495 29.354 24.0301 29.354 22C29.354 20.0113 28.629 18.3126 27.1996 16.8832C25.7702 15.4746 24.0508 14.7702 22.0207 14.7702C20.0113 14.7702 18.2919 15.4746 16.8832 16.8832C15.4331 18.3126 14.7288 20.0113 14.7288 22ZM20.2392 38.1168C20.2392 37.6196 20.4049 37.2053 20.7571 36.8738C21.1092 36.5424 21.5235 36.3766 22 36.3766C22.4972 36.3766 22.9322 36.5424 23.2637 36.8738C23.5951 37.2053 23.7608 37.6196 23.7608 38.1168V42.2392C23.7608 42.7363 23.5951 43.1714 23.2429 43.5235C22.8908 43.8757 22.4765 44.0414 22 44.0414C21.5235 44.0414 21.0885 43.8757 20.7571 43.5235C20.4049 43.1714 20.2392 42.7363 20.2392 42.2392V38.1168ZM20.2392 6.00753V1.78154C20.2392 1.30508 20.4049 0.890773 20.7571 0.538607C21.1092 0.186441 21.5235 0 22.0207 0C22.5179 0 22.9115 0.165725 23.2637 0.517891C23.6158 0.870056 23.7815 1.28437 23.7815 1.76083V6.00753C23.7815 6.48399 23.6158 6.87759 23.2637 7.20904C22.9115 7.54049 22.4972 7.6855 22.0207 7.6855C21.5443 7.6855 21.1092 7.51977 20.7778 7.20904C20.4463 6.8983 20.2392 6.48399 20.2392 6.00753ZM31.6742 33.3107C31.6742 32.8343 31.8399 32.4407 32.1507 32.1507C32.4614 31.8192 32.855 31.6742 33.3107 31.6742C33.8079 31.6742 34.2222 31.8399 34.5537 32.1507L37.5782 35.113C37.9096 35.4652 38.0753 35.9002 38.0753 36.3766C38.0753 36.8531 37.9096 37.2674 37.5782 37.5989C36.7495 38.2411 35.9209 38.2411 35.0923 37.5989L32.1507 34.6572C31.8399 34.2844 31.6742 33.8493 31.6742 33.3107ZM31.6742 10.6893C31.6742 10.1714 31.8399 9.75706 32.1507 9.46704L35.0923 6.42184C35.4444 6.09039 35.8588 5.92467 36.3145 5.92467C36.8117 5.92467 37.226 6.0904 37.5574 6.44256C37.9096 6.79473 38.0753 7.20904 38.0753 7.6855C38.0753 8.20339 37.9096 8.63842 37.5782 8.96987L34.5537 11.9322C34.1808 12.2637 33.7665 12.4294 33.3107 12.4294C32.8343 12.4294 32.4614 12.2637 32.1507 11.9322C31.8399 11.6008 31.6742 11.1864 31.6742 10.6893ZM36.3559 22C36.3559 21.5028 36.5217 21.0885 36.8531 20.7156C37.1846 20.3842 37.5782 20.2185 38.0339 20.2185H42.2185C42.6949 20.2185 43.1092 20.4049 43.4614 20.7571C43.8136 21.1092 44 21.5235 44 22C44 22.4765 43.8136 22.8908 43.4614 23.2429C43.1092 23.5951 42.6949 23.7608 42.2185 23.7608H38.0339C37.5574 23.7608 37.1431 23.5951 36.8324 23.2429C36.5217 22.8908 36.3559 22.4972 36.3559 22Z" fill="black"/>
</svg>
