<svg width="45" height="34" viewBox="0 0 45 34" fill="none" xmlns="http://www.w3.org/2000/svg">
<path d="M0 22.1914C0 21.7386 0.181155 21.3219 0.543464 20.9415C0.942004 20.5973 1.37678 20.4161 1.81155 20.4161H6.03245C6.52157 20.4161 6.92011 20.5973 7.24619 20.9415C7.57227 21.2857 7.7353 21.7204 7.7353 22.1914C7.7353 22.7168 7.57227 23.1516 7.24619 23.4958C6.92011 23.84 6.50345 24.0211 6.03245 24.0211H1.81155C1.32243 24.0211 0.905773 23.84 0.543464 23.4776C0.181155 23.0972 0 22.6624 0 22.1914ZM6.03245 7.73531C6.03245 7.24619 6.19549 6.82953 6.50345 6.50345C6.92011 6.14114 7.33676 5.95999 7.78965 5.95999C8.26065 5.95999 8.67731 6.14114 9.0215 6.48534L11.9924 9.47439C12.3366 9.87293 12.4997 10.2896 12.4997 10.7244C12.4997 11.2316 12.3366 11.6664 12.0106 11.9924C11.6845 12.3185 11.2859 12.4997 10.8149 12.4997C10.3802 12.4997 9.94539 12.3185 9.54685 11.9743L6.50345 9.05773C6.19549 8.67731 6.03245 8.22442 6.03245 7.73531ZM9.65554 32.1912C9.65554 31.6839 9.8367 31.2673 10.1809 30.9593C10.507 30.6514 10.9055 30.4883 11.4127 30.4883H16.1771L21.811 25.1986C21.9922 25.0537 22.1914 25.0537 22.4269 25.1986L28.1514 30.4883H33.1694C33.6585 30.4883 34.0752 30.6514 34.4194 30.9956C34.7636 31.3216 34.9447 31.7383 34.9447 32.2093C34.9447 32.6984 34.7636 33.1151 34.4194 33.4593C34.0752 33.8035 33.6585 33.9846 33.1694 33.9846H27.0464C26.8652 33.9846 26.6841 33.9484 26.521 33.8578L22.1552 29.7456L17.8256 33.8578C17.6807 33.9484 17.5177 33.9846 17.3184 33.9846H11.4127C10.9236 33.9846 10.507 33.8035 10.1628 33.4593C9.81858 33.097 9.65554 32.6803 9.65554 32.1912ZM11.3222 22.1914C11.3222 23.9486 11.7026 25.5428 12.4453 26.9739C12.4816 27.1913 12.6446 27.3 12.8982 27.3H16.3039C16.4307 27.3 16.5213 27.2457 16.5757 27.1551C16.63 27.0464 16.6119 26.9377 16.5394 26.8109C15.38 25.416 14.8003 23.8762 14.8003 22.1914C14.8003 20.1625 15.525 18.4234 16.9742 16.9923C18.4234 15.5612 20.1625 14.8547 22.2096 14.8547C24.2385 14.8547 25.9595 15.5612 27.3906 16.9923C28.8217 18.4234 29.5463 20.1444 29.5463 22.1914C29.5463 23.8943 28.9666 25.4341 27.8254 26.8109C27.7529 26.9377 27.7348 27.0464 27.771 27.1551C27.8072 27.2638 27.8978 27.3 28.0427 27.3H31.4847C31.7202 27.3 31.8651 27.1913 31.9013 26.9739C32.6984 25.579 33.0607 23.9849 33.0607 22.1914C33.0607 20.7241 32.7709 19.3111 32.1912 17.9887C31.6115 16.6481 30.8325 15.5068 29.8724 14.5286C28.9123 13.5685 27.7529 12.7895 26.4123 12.2098C25.0718 11.6301 23.6769 11.3584 22.2096 11.3584C20.7422 11.3584 19.3292 11.6482 17.9887 12.2098C16.6481 12.7895 15.4887 13.5504 14.5105 14.5286C13.5323 15.4887 12.7533 16.6481 12.1736 17.9887C11.612 19.3111 11.3222 20.706 11.3222 22.1914ZM20.4342 5.95999V1.79343C20.4342 1.26808 20.5973 0.851427 20.9415 0.507233C21.2857 0.16304 21.7204 0 22.2277 0C22.7349 0 23.1516 0.16304 23.4958 0.507233C23.84 0.851427 24.003 1.30431 24.003 1.81155V5.9781C24.003 6.50345 23.84 6.92011 23.4958 7.2643C23.1697 7.59038 22.7349 7.77154 22.2277 7.77154C21.7023 7.77154 21.2857 7.6085 20.9415 7.2643C20.5973 6.92011 20.4342 6.48534 20.4342 5.95999ZM31.9376 10.7425C31.9376 10.2896 32.1006 9.87293 32.4267 9.49251L35.3614 6.50345C35.7056 6.15926 36.1404 5.9781 36.6295 5.9781C37.1186 5.9781 37.5534 6.15926 37.8794 6.50345C38.2236 6.84765 38.3867 7.2643 38.3867 7.75342C38.3867 8.27877 38.2236 8.71354 37.9157 9.07585L34.8723 11.9924C34.4918 12.3366 34.0571 12.5178 33.6042 12.5178C33.1151 12.5178 32.7165 12.3547 32.4086 12.0106C32.1006 11.6664 31.9376 11.2497 31.9376 10.7425ZM36.6657 22.1914C36.6657 21.7023 36.8287 21.2857 37.1548 20.9415C37.4809 20.5973 37.8794 20.4161 38.3504 20.4161H42.6076C43.0967 20.4161 43.5134 20.5973 43.8575 20.9415C44.2017 21.2857 44.3829 21.7204 44.3829 22.1914C44.3829 22.6987 44.2017 23.1153 43.8575 23.4776C43.5134 23.84 43.0967 24.0211 42.6076 24.0211H38.3504C37.8613 24.0211 37.4628 23.84 37.1367 23.4958C36.8287 23.1335 36.6657 22.6987 36.6657 22.1914Z" fill="black"/>
</svg>
