<svg width="45" height="40" viewBox="0 0 45 40" fill="none" xmlns="http://www.w3.org/2000/svg">
<path d="M0 22.1823C0 21.6698 0.183022 21.2672 0.549067 20.9377C0.860204 20.6083 1.28116 20.4619 1.79362 20.4619H6.02143C6.51559 20.4619 6.91824 20.6266 7.24768 20.956C7.55882 21.2855 7.72354 21.6881 7.72354 22.1823C7.72354 22.6948 7.55882 23.134 7.22938 23.4818C6.89994 23.8295 6.49729 24.0125 6.02143 24.0125H1.81192C1.31776 24.0125 0.896809 23.8295 0.549067 23.4635C0.183022 23.0974 0 22.6765 0 22.1823ZM6.02143 7.79675C6.02143 7.28429 6.16785 6.86333 6.47899 6.5522C6.84503 6.18615 7.26598 6.00313 7.76014 6.00313C8.29091 6.00313 8.69356 6.18615 9.00469 6.5522L11.9697 9.53546C12.8116 10.3408 12.8116 11.1644 11.9697 12.0063C11.6219 12.354 11.2376 12.5187 10.78 12.5187C10.3774 12.5187 9.97471 12.354 9.53546 12.0063L6.49729 9.0413C6.18615 8.71186 6.02143 8.29091 6.02143 7.79675ZM9.62697 32.1021C9.62697 31.6262 9.80999 31.2053 10.176 30.8393C10.5055 30.5098 10.9264 30.3451 11.4206 30.3451H17.3139C17.5152 30.3451 17.6799 30.3817 17.8264 30.4915L22.1274 34.5546L26.5016 30.4732C26.6297 30.3817 26.8128 30.3268 27.0324 30.3268H33.0721C33.5663 30.3268 33.9872 30.4915 34.335 30.8393C34.6827 31.187 34.8657 31.6079 34.8657 32.0838C34.8657 32.578 34.6827 32.9989 34.335 33.3467C33.9872 33.6944 33.5663 33.8774 33.0721 33.8774H28.1671L22.4202 39.0753C22.2006 39.24 21.9993 39.24 21.8162 39.0753L16.1792 33.8774H11.4206C10.9264 33.8774 10.5055 33.6944 10.1577 33.3467C9.80999 33.0172 9.62697 32.5963 9.62697 32.1021ZM11.3474 22.1823C11.3474 23.9942 11.6951 25.6048 12.4089 26.9775C12.5187 27.1788 12.6834 27.2703 12.9031 27.2703H16.3256C16.472 27.2703 16.5635 27.2337 16.6001 27.1422C16.6367 27.0507 16.5818 26.9409 16.472 26.8128C15.3922 25.4584 14.8431 23.9027 14.8431 22.1823C14.8431 20.1691 15.5569 18.4486 17.0028 17.0394C18.4486 15.6301 20.1874 14.9163 22.2189 14.9163C24.2321 14.9163 25.9526 15.6301 27.3984 17.0394C28.826 18.4669 29.5581 20.1691 29.5581 22.164C29.5581 23.8844 29.009 25.4401 27.9292 26.7945C27.8011 26.9226 27.7645 27.0324 27.8011 27.1239C27.8377 27.2154 27.9292 27.252 28.0756 27.252H31.5164C31.7544 27.252 31.9008 27.1605 31.9557 26.9592C32.7061 25.5316 33.0904 23.921 33.0904 22.164C33.0904 20.7181 32.7976 19.3088 32.2302 17.9728C31.6628 16.6367 30.8759 15.4654 29.9058 14.4954C28.9358 13.5253 27.7828 12.7567 26.4467 12.171C25.1107 11.5853 23.7014 11.3108 22.2372 11.3108C20.773 11.3108 19.3638 11.6036 18.0277 12.171C16.6916 12.7567 15.5386 13.5253 14.5686 14.4954C13.5986 15.4654 12.8299 16.6184 12.2442 17.9728C11.6585 19.3271 11.3474 20.7364 11.3474 22.1823ZM20.4253 6.05804V1.79362C20.4253 1.29946 20.6083 0.878507 20.956 0.530765C21.3038 0.183023 21.7247 0 22.2189 0C22.7131 0 23.134 0.183023 23.4818 0.530765C23.8295 0.878507 24.0125 1.29946 24.0125 1.79362V6.03973C24.0125 6.53389 23.8295 6.95485 23.4818 7.30259C23.134 7.65033 22.7131 7.83335 22.2189 7.83335C21.7247 7.83335 21.3038 7.65033 20.956 7.30259C20.59 6.95485 20.4253 6.5522 20.4253 6.05804ZM31.9008 10.78C31.9008 10.2675 32.0655 9.8466 32.3766 9.55376L35.3599 6.5705C35.6527 6.20445 36.0737 6.02143 36.6044 6.02143C37.0986 6.02143 37.5196 6.20445 37.849 6.5522C38.1784 6.89994 38.3432 7.32089 38.3432 7.81505C38.3432 8.32751 38.1967 8.74846 37.8856 9.0596L34.8474 12.0429C34.4265 12.3906 34.0055 12.5553 33.5846 12.5553C33.1087 12.5553 32.7061 12.3906 32.3766 12.0429C32.0655 11.6951 31.9008 11.2742 31.9008 10.78ZM36.6411 22.1823C36.6411 21.6881 36.8058 21.2855 37.1169 20.956C37.428 20.6266 37.849 20.4619 38.3432 20.4619H42.5893C43.0834 20.4619 43.5044 20.6266 43.8521 20.956C44.1999 21.2855 44.3829 21.6881 44.3829 22.1823C44.3829 22.6765 44.1999 23.0974 43.8521 23.4635C43.5044 23.8295 43.0834 24.0125 42.5893 24.0125H38.3432C37.8673 24.0125 37.4647 23.8295 37.1352 23.4818C36.8058 23.134 36.6411 22.6948 36.6411 22.1823Z" fill="black"/>
</svg>
