<svg width="38" height="24" viewBox="0 0 38 24" fill="none" xmlns="http://www.w3.org/2000/svg">
<path d="M0 14.8269C0 15.2706 0.143698 15.6588 0.447059 15.9731C0.702521 16.3244 1.03782 16.4908 1.45294 16.4908H24.9076C25.3706 16.4908 25.7538 16.6756 26.0731 17.0454C26.3924 17.4151 26.5521 17.8773 26.5521 18.4134C26.5521 18.9496 26.3924 19.3933 26.0731 19.7445C25.7538 20.0958 25.3706 20.2807 24.8916 20.2807C24.4286 20.2807 24.0294 20.0958 23.726 19.7445C23.4706 19.4118 23.1513 19.2639 22.7681 19.2639C22.3689 19.2639 22.0336 19.4303 21.7462 19.7445C21.4588 20.0588 21.3151 20.4471 21.3151 20.8723C21.3151 21.3345 21.4588 21.7227 21.7622 22.037C22.6563 23.0538 23.7101 23.5714 24.8916 23.5714C26.137 23.5714 27.2067 23.0723 28.1008 22.0739C28.995 21.0756 29.4261 19.874 29.4261 18.4319C29.4261 16.9899 28.979 15.7697 28.0849 14.7345C27.1908 13.6992 26.121 13.1815 24.8916 13.1815H1.45294C1.05378 13.1815 0.718487 13.3479 0.431092 13.6622C0.143697 13.9765 0 14.3647 0 14.8269ZM0 8.76303C0 9.18824 0.143698 9.55798 0.447059 9.89076C0.718488 10.2235 1.05378 10.3714 1.45294 10.3714H33.4496C34.695 10.3714 35.7647 9.87227 36.6588 8.85546C37.5529 7.85714 38 6.63698 38 5.21345C38 3.78992 37.5529 2.55126 36.6588 1.53445C35.7647 0.517647 34.695 0 33.4496 0C32.2202 0 31.1824 0.49916 30.3361 1.47899C30.0487 1.77479 29.905 2.18151 29.905 2.71765C29.905 3.19832 30.0487 3.58656 30.3202 3.88235C30.5916 4.17815 30.9269 4.32605 31.326 4.32605C31.7092 4.32605 32.0445 4.17815 32.3319 3.88235C32.6353 3.49412 33.0025 3.30924 33.4496 3.30924C33.9126 3.30924 34.2958 3.49412 34.6151 3.86387C34.9345 4.23361 35.0941 4.67731 35.0941 5.21345C35.0941 5.74958 34.9345 6.19328 34.6151 6.54454C34.2958 6.8958 33.9126 7.08067 33.4496 7.08067H1.45294C1.05378 7.08067 0.718487 7.24706 0.431092 7.56134C0.143697 7.91261 0 8.30084 0 8.76303Z" fill="black"/>
</svg>
