{
  "accessors": [
    {
      "bufferView": 2,
      "componentType": 5126,
      "count": 316,
      "max": [
        3.882070541381836,
        1.0599749088287354,
        1.787827968597412
      ],
      "min": [
        -1.3687241077423096,
        -1.0824394226074219,
        -1.4545410871505737
      ],
      "type": "VEC3"
    },
    {
      "bufferView": 2,
      "byteOffset": 3792,
      "componentType": 5126,
      "count": 316,
      "max": [
        0.9992455244064331,
        0.9951053261756897,
        0.9620548486709595
      ],
      "min": [
        -0.9213843941688538,
        -0.9869104623794556,
        -0.9739200472831726
      ],
      "type": "VEC3"
    },
    {
      "bufferView": 0,
      "componentType": 5125,
      "count": 336,
      "type": "SCALAR"
    },
    {
      "bufferView": 2,
      "byteOffset": 7584,
      "componentType": 5126,
      "count": 336,
      "max": [
        3.188194751739502,
        0.5683731436729431,
        0.5310060381889343
      ],
      "min": [
        -0.35087907314300537,
        0.25946539640426636,
        -0.43902528285980225
      ],
      "type": "VEC3"
    },
    {
      "bufferView": 2,
      "byteOffset": 11616,
      "componentType": 5126,
      "count": 336,
      "max": [
        0.8603743314743042,
        0.9682741165161133,
        0.8729509115219116
      ],
      "min": [
        -0.8609157800674438,
        -0.9682741165161133,
        -0.865578830242157
      ],
      "type": "VEC3"
    },
    {
      "bufferView": 1,
      "componentType": 5126,
      "count": 336,
      "max": [
        0.6083865165710449,
        0.9441553354263306
      ],
      "min": [
        0.3245604634284973,
        0.491050124168396
      ],
      "type": "VEC2"
    },
    {
      "bufferView": 0,
      "byteOffset": 1344,
      "componentType": 5125,
      "count": 504,
      "type": "SCALAR"
    }
  ],
  "asset": {
    "extras": {
      "author": "Amedhh (https://sketchfab.com/Amedhh)",
      "license": "CC-BY-4.0 (http://creativecommons.org/licenses/by/4.0/)",
      "source": "https://sketchfab.com/3d-models/basic-low-poly-cloud-ae82c7379fc84444943b9b475c35d266",
      "title": "Basic Low Poly Cloud"
    },
    "generator": "Sketchfab-12.67.0",
    "version": "2.0"
  },
  "bufferViews": [
    {
      "buffer": 0,
      "byteLength": 3360,
      "name": "floatBufferViews",
      "target": 34963
    },
    {
      "buffer": 0,
      "byteLength": 2688,
      "byteOffset": 3360,
      "byteStride": 8,
      "name": "floatBufferViews",
      "target": 34962
    },
    {
      "buffer": 0,
      "byteLength": 15648,
      "byteOffset": 6048,
      "byteStride": 12,
      "name": "floatBufferViews",
      "target": 34962
    }
  ],
  "buffers": [
    {
      "byteLength": 21696,
      "uri": "scene.bin"
    }
  ],
  "materials": [
    {
      "doubleSided": true,
      "name": "Material.002",
      "pbrMetallicRoughness": {
        "baseColorFactor": [
          0.955091,
          0.955091,
          0.955091,
          1.0
        ],
        "metallicFactor": 0.0,
        "roughnessFactor": 0.7864351599301749
      }
    },
    {
      "doubleSided": true,
      "name": "Material.001",
      "pbrMetallicRoughness": {
        "baseColorFactor": [
          0.0210651,
          0.732566,
          0.8,
          1.0
        ],
        "metallicFactor": 0.0,
        "roughnessFactor": 0.8689284830876625
      }
    }
  ],
  "meshes": [
    {
      "name": "Mball.004_Material.002_0",
      "primitives": [
        {
          "attributes": {
            "NORMAL": 1,
            "POSITION": 0
          },
          "indices": 2,
          "material": 0,
          "mode": 4
        }
      ]
    },
    {
      "name": "Plane_Material.001_0",
      "primitives": [
        {
          "attributes": {
            "NORMAL": 4,
            "POSITION": 3,
            "TEXCOORD_0": 5
          },
          "indices": 6,
          "material": 1,
          "mode": 4
        }
      ]
    }
  ],
  "nodes": [
    {
      "children": [
        1
      ],
      "matrix": [
        1.0,
        0.0,
        0.0,
        0.0,
        0.0,
        2.220446049250313e-16,
        -1.0,
        0.0,
        0.0,
        1.0,
        2.220446049250313e-16,
        0.0,
        0.0,
        0.0,
        0.0,
        1.0
      ],
      "name": "Sketchfab_model"
    },
    {
      "children": [
        2
      ],
      "matrix": [
        1.0,
        0.0,
        0.0,
        0.0,
        0.0,
        0.0,
        1.0,
        0.0,
        0.0,
        -1.0,
        0.0,
        0.0,
        0.0,
        0.0,
        0.0,
        1.0
      ],
      "name": "d434a5a4774e483eb61e78d411adbbdf.fbx"
    },
    {
      "children": [
        3,
        5
      ],
      "name": "RootNode"
    },
    {
      "children": [
        4
      ],
      "matrix": [
        115.27005767822266,
        0.0,
        0.0,
        0.0,
        0.0,
        -1.877987611047163e-05,
        -115.27005767822114,
        0.0,
        0.0,
        115.27005767822114,
        -1.877987611047163e-05,
        0.0,
        376.4015808105469,
        338.82659912109375,
        0.0,
        1.0
      ],
      "name": "Mball.004"
    },
    {
      "mesh": 0,
      "name": "Mball.004_Material.002_0"
    },
    {
      "children": [
        6
      ],
      "matrix": [
        100.0,
        0.0,
        0.0,
        0.0,
        0.0,
        -1.629206793918314e-05,
        -99.99999999999868,
        0.0,
        0.0,
        99.99999999999868,
        -1.629206793918314e-05,
        0.0,
        397.71978759765625,
        134.64297485351563,
        46.366302490234375,
        1.0
      ],
      "name": "Plane"
    },
    {
      "mesh": 1,
      "name": "Plane_Material.001_0"
    }
  ],
  "scene": 0,
  "scenes": [
    {
      "name": "Sketchfab_Scene",
      "nodes": [
        0
      ]
    }
  ]
}
